<?xml version="1.0" encoding="utf-8"?>
<!-- Generator: Adobe Illustrator 25.2.1, SVG Export Plug-In . SVG Version: 6.00 Build 0)  -->
<svg version="1.1" id="Layer_1" xmlns="http://www.w3.org/2000/svg" xmlns:xlink="http://www.w3.org/1999/xlink" x="0px" y="0px"
	 viewBox="0 0 452.9 144.6" style="enable-background:new 0 0 452.9 144.6;" xml:space="preserve">
<style type="text/css">
	.st0{fill:#F8CF26;}
	.st1{fill:#66CEDB;}
	.st2{fill:none;}
	.st3{fill:#443027;}
</style>
<g>
	<g>
		<path class="st0" d="M51.8,114.6H41.5v27.9h-19V63.6h31.1c9.4,0,16.7,2.1,22,6.2c5.3,4.2,7.9,10,7.9,17.6c0,5.5-1.1,10-3.3,13.6
			c-2.2,3.6-5.7,6.5-10.4,8.8l16.5,31.9v0.8H65.8L51.8,114.6z M41.5,99.9h12c3.6,0,6.3-0.9,8.2-2.9c1.8-1.9,2.7-4.6,2.7-8
			c0-3.4-0.9-6.1-2.8-8c-1.8-1.9-4.6-2.9-8.1-2.9h-12V99.9z"/>
		<path class="st1" d="M143.9,109h-29.9v18.9h35.3v14.6H94.9V63.6h54.5v14.7h-35.4v16.6h29.9V109z"/>
		<path class="st0" d="M197.7,121.5c0-2.8-1-5-3-6.5c-2-1.6-5.4-3.2-10.4-4.8c-5-1.7-9-3.3-12.1-4.8c-10.2-5-15.3-11.9-15.3-20.7
			c0-4.4,1.3-8.2,3.8-11.6c2.5-3.3,6.2-5.9,10.8-7.8c4.7-1.9,9.9-2.8,15.7-2.8c5.7,0,10.8,1,15.3,3c4.5,2,8,4.9,10.5,8.6
			c2.5,3.7,3.7,8,3.7,12.8h-19c0-3.2-1-5.7-3-7.5c-2-1.8-4.6-2.7-8-2.7c-3.4,0-6.1,0.8-8,2.2c-2,1.5-3,3.4-3,5.7
			c0,2,1.1,3.9,3.3,5.5c2.2,1.6,6,3.3,11.4,5.1c5.5,1.8,9.9,3.6,13.4,5.7c8.5,4.9,12.8,11.7,12.8,20.3c0,6.9-2.6,12.3-7.8,16.3
			c-5.2,3.9-12.3,5.9-21.4,5.9c-6.4,0-12.2-1.1-17.4-3.4c-5.2-2.3-9.1-5.4-11.7-9.4c-2.6-4-3.9-8.6-3.9-13.8h19.1
			c0,4.2,1.1,7.3,3.3,9.3c2.2,2,5.7,3,10.6,3c3.1,0,5.6-0.7,7.5-2C196.8,125.9,197.7,124,197.7,121.5z"/>
		<path class="st0" d="M288.4,63.6v51.7c0,5.9-1.2,10.9-3.7,15.2c-2.5,4.3-6.1,7.5-10.7,9.8c-4.7,2.2-10.2,3.4-16.5,3.4
			c-9.6,0-17.2-2.5-22.7-7.5c-5.5-5-8.3-11.8-8.5-20.5v-52h19.1V116c0.2,8.6,4.2,13,12,13c3.9,0,6.9-1.1,8.9-3.3c2-2.2,3-5.7,3-10.6
			V63.6H288.4z"/>
		<path class="st0" d="M325.3,63.6l17.6,54.9l17.6-54.9h25v78.9h-19.1v-18.4l1.8-37.7l-19.1,56.2h-12.6l-19.1-56.2l1.8,37.8v18.4
			h-19V63.6H325.3z"/>
		<g>
			<g>
				<path class="st2" d="M51.8,114.6H41.5v27.9h-19V63.6h31.1c9.4,0,16.7,2.1,22,6.2c5.3,4.2,7.9,10,7.9,17.6c0,5.5-1.1,10-3.3,13.6
					c-2.2,3.6-5.7,6.5-10.4,8.8l16.5,31.9v0.8H65.8L51.8,114.6z M41.5,99.9h12c3.6,0,6.3-0.9,8.2-2.9c1.8-1.9,2.7-4.6,2.7-8
					c0-3.4-0.9-6.1-2.8-8c-1.8-1.9-4.6-2.9-8.1-2.9h-12V99.9z"/>
			</g>
			<g>
				<g>
					<path class="st3" d="M53.5,100.9c-0.1,0-0.2,0-0.2,0H41.5v-2h11.7c2.6,0,4.5-0.4,6.1-1.3c1.7-0.9,3-2.7,3.6-4.7
						c0.5-1.6,0.6-3.4,0.4-5.5c-0.2-1.8-0.7-3.1-1-3.7c-0.4-0.8-0.7-1.2-0.7-1.2l1.5-1.3c0,0.1,0.5,0.6,1,1.6c0.4,0.7,1,2.2,1.2,4.4
						c0.2,2.3,0.1,4.4-0.5,6.3c-0.7,2.5-2.4,4.7-4.5,5.9C58.5,100.4,56.3,100.9,53.5,100.9z"/>
				</g>
				<g>
					<path class="st3" d="M42.5,83.8h-2v-5.6c0-0.6,0.4-1,1-1h11.7c1.5,0,2.9,0.1,4.1,0.4l-0.5,1.9c-1.1-0.3-2.3-0.4-3.6-0.4H42.5
						V83.8z"/>
				</g>
				<g>
					<rect x="40.5" y="89.3" class="st3" width="2" height="10.6"/>
				</g>
			</g>
			<g>
				<g>
					<path class="st3" d="M41.5,143.5h-19c-0.6,0-1-0.4-1-1V63.6c0-0.6,0.4-1,1-1h13.7v2H23.5v76.9h17v-26.9c0-0.6,0.4-1,1-1h10.3v2
						h-9.3v26.9C42.5,143,42.1,143.5,41.5,143.5z"/>
				</g>
				<g>
					<path class="st3" d="M79.4,130.7l-10.6-20.4c-0.1-0.2-0.2-0.5-0.1-0.7c0-0.2,0.2-0.6,0.6-0.8c0,0,0,0,0,0l0.2-0.1
						c1.1-0.5,2.2-1.1,3.1-1.7c2.2-1.4,4.1-3.1,5.5-4.9c1.5-1.9,2.6-4.2,3.3-6.8c0.6-2.3,0.9-4.9,1-7.7c0-2.7-0.3-5.2-1-7.4
						c-0.6-2.2-1.7-4.3-3.1-6.1c-1.2-1.6-2.6-2.9-4.5-4.3c-2.5-1.7-5.2-3-8.5-3.9c-1-0.3-1.8-0.4-2.4-0.6L62,65.2l0.4-2l1.2,0.2
						c0.6,0.1,1.5,0.3,2.5,0.6c3.5,0.9,6.4,2.3,9.1,4.2c2,1.4,3.6,3,4.9,4.7c1.5,2,2.7,4.3,3.4,6.8c0.7,2.4,1.1,5,1,7.9
						c0,3-0.4,5.7-1,8.2c-0.8,2.8-2,5.4-3.7,7.5c-1.5,2-3.5,3.8-6,5.4c-0.9,0.6-1.8,1.1-2.8,1.6l10.1,19.6L79.4,130.7z"/>
				</g>
				<g>
					<path class="st3" d="M77.4,143.5H65.8c-0.4,0-0.7-0.2-0.9-0.6L50.9,115l1.8-0.9l13.7,27.4h11.1V143.5z"/>
				</g>
			</g>
		</g>
		<g>
			<g>
				<path class="st2" d="M197.7,121.5c0-2.8-1-5-3-6.5c-2-1.6-5.4-3.2-10.4-4.8c-5-1.7-9-3.3-12.1-4.8c-10.2-5-15.3-11.9-15.3-20.7
					c0-4.4,1.3-8.2,3.8-11.6c2.5-3.3,6.2-5.9,10.8-7.8c4.7-1.9,9.9-2.8,15.7-2.8c5.7,0,10.8,1,15.3,3c4.5,2,8,4.9,10.5,8.6
					c2.5,3.7,3.7,8,3.7,12.8h-19c0-3.2-1-5.7-3-7.5c-2-1.8-4.6-2.7-8-2.7c-3.4,0-6.1,0.8-8,2.2c-2,1.5-3,3.4-3,5.7
					c0,2,1.1,3.9,3.3,5.5c2.2,1.6,6,3.3,11.4,5.1c5.5,1.8,9.9,3.6,13.4,5.7c8.5,4.9,12.8,11.7,12.8,20.3c0,6.9-2.6,12.3-7.8,16.3
					c-5.2,3.9-12.3,5.9-21.4,5.9c-6.4,0-12.2-1.1-17.4-3.4c-5.2-2.3-9.1-5.4-11.7-9.4c-2.6-4-3.9-8.6-3.9-13.8h19.1
					c0,4.2,1.1,7.3,3.3,9.3c2.2,2,5.7,3,10.6,3c3.1,0,5.6-0.7,7.5-2C196.8,125.9,197.7,124,197.7,121.5z"/>
			</g>
			<g>
				<g>
					<path class="st3" d="M196.7,121.5l0-0.5c0-0.3-0.1-0.8-0.2-1.3c-0.2-1-0.8-2.8-2.7-4.1c-1.7-1.2-4.2-2.4-7.9-3.8l-1.6-0.6
						c-2.8-1-6.1-2.1-9.4-3.5c-3.5-1.5-8.1-3.7-12-7.4c-2-1.9-3.7-4-4.8-6.2c-1.2-2.5-2-5.2-2.2-7.9c-0.2-3,0.2-5.8,1.1-8.4
						c0.9-2.7,2.6-5.2,4.7-7.4c3.7-3.7,9.1-6.5,15.5-7.9c2.7-0.6,5.6-0.9,8.7-1c3-0.1,6,0.1,8.7,0.6c6.1,1.1,11.4,3.5,15.3,7
						c4,3.6,6.8,8.7,7.5,13.9c0.2,1.2,0.3,2.5,0.3,3.7l0,0.2c0,0.1,0,0.2,0,0.3c-0.1,0.4-0.5,0.8-1.1,0.7c0,0,0,0,0,0h-18.8
						c-0.5,0-1-0.4-1-1c0-0.9-0.1-1.8-0.3-2.5c-0.3-1.5-1-2.8-1.9-3.8c-0.8-0.9-1.9-1.6-3-2.1c-2.2-0.8-4.1-0.8-5.3-0.8
						c-1.2,0-1.9,0.1-1.9,0.1l-0.3-2c0,0,0.8-0.1,2.2-0.2c1.3,0,3.5,0,6.1,0.9c1.4,0.6,2.7,1.5,3.8,2.5c1.2,1.2,2,2.9,2.4,4.8
						c0.1,0.6,0.2,1.2,0.2,1.9h17c0-0.9-0.1-1.8-0.3-2.7c-0.7-4.8-3.2-9.4-6.9-12.7c-3.7-3.3-8.6-5.5-14.3-6.5
						c-2.6-0.4-5.3-0.6-8.3-0.6c-2.9,0.1-5.7,0.4-8.3,1c-6,1.3-11.1,3.9-14.5,7.3c-1.9,1.9-3.4,4.2-4.2,6.6c-0.8,2.3-1.2,4.9-1,7.6
						c0.2,2.5,0.8,4.9,2,7.2c1,2,2.5,3.9,4.4,5.7c3.7,3.4,8.1,5.5,11.4,7c3.3,1.4,6.5,2.5,9.3,3.5l1.6,0.6c3.9,1.4,6.4,2.6,8.4,4
						c2.5,1.7,3.3,4.1,3.5,5.4c0.1,0.7,0.2,1.2,0.2,1.6c0,0,0,0.1,0,0.1l0,0.5L196.7,121.5z"/>
				</g>
				<g>
					<path class="st3" d="M187.5,144.6c-2.3,0-4.7-0.2-6.9-0.5c-5.1-0.7-9.1-2.2-11.6-3.4c-2.6-1.3-4-2.2-4.1-2.3l1.2-1.6
						c0,0,1.3,0.9,3.8,2.1c2.3,1.1,6.2,2.6,11,3.2c2.5,0.4,5.1,0.5,7.7,0.4c3,0,5.9-0.3,8.6-0.9c3.1-0.6,6-1.7,8.6-3.1
						c2.9-1.6,5.2-3.7,6.9-6.1c1.7-2.4,2.7-5.4,3-8.6c0.1-1.5,0.1-3,0-4.6c-0.1-1.5-0.4-3-0.9-4.3c-0.4-1.4-1-2.7-1.7-3.9
						c-0.7-1.2-1.5-2.3-2.4-3.3c-1.6-1.8-3.6-3.5-5.8-4.9c-4.1-2.5-7.8-3.9-10.5-5c-2.7-1-4.2-1.5-4.2-1.5l0.6-1.9
						c0.1,0,1.6,0.5,4.3,1.5c2.7,1,6.6,2.5,10.9,5.2c2.4,1.5,4.5,3.3,6.3,5.2c1,1.2,1.9,2.4,2.7,3.7c0.8,1.3,1.4,2.8,1.9,4.3
						c0.5,1.5,0.8,3.1,1,4.8c0.2,1.7,0.2,3.4,0,5c-0.3,3.5-1.5,6.8-3.4,9.6c-1.8,2.6-4.4,5-7.5,6.7c-2.7,1.5-5.8,2.6-9.1,3.3
						c-2.8,0.6-5.8,0.9-9,0.9C188.3,144.6,187.9,144.6,187.5,144.6z"/>
				</g>
				<g>
					<path class="st3" d="M187.4,130.3c-0.6,0-1.3,0-2-0.1c-1.9-0.1-3.5-0.4-4.9-0.8c-1.9-0.6-3.4-1.5-4.6-2.6
						c-1.2-1.2-2.1-2.8-2.6-4.6c-0.4-1.3-0.6-2.6-0.6-4.2h-15.3v-2h16.3c0.3,0,0.5,0.1,0.7,0.2c0.3,0.2,0.4,0.6,0.4,0.9l0,0.1
						c0,1.7,0.2,3.1,0.6,4.4c0.4,1.5,1.2,2.8,2.1,3.8c0.9,0.9,2.2,1.7,3.8,2.2c1.3,0.4,2.7,0.6,4.4,0.8c3.3,0.2,5.8-0.1,7.7-1
						c0.9-0.5,1.7-1.1,2.3-1.8c0.5-0.6,0.8-1.2,1-1.9c0.2-0.6,0.2-1.1,0.2-1.4l0-0.6l2,0.1l0,0.6c0,0.4-0.1,1.1-0.3,1.9
						c-0.3,1-0.7,1.9-1.4,2.6c-0.7,0.9-1.8,1.7-3,2.3C192.3,129.8,190.1,130.3,187.4,130.3z M173.8,117.9
						C173.8,117.9,173.8,117.9,173.8,117.9C173.8,117.9,173.8,117.9,173.8,117.9z"/>
				</g>
			</g>
		</g>
		<g>
			<g>
				<path class="st2" d="M325.3,63.6l17.6,54.9l17.6-54.9h25v78.9h-19.1v-18.4l1.8-37.7l-19.1,56.2h-12.6l-19.1-56.2l1.8,37.8v18.4
					h-19V63.6H325.3z"/>
			</g>
			<g>
				<g>
					<path class="st3" d="M385.5,143.5h-19.1c-0.3,0-0.5-0.1-0.7-0.3c-0.2-0.2-0.3-0.4-0.3-0.7c0-2.3,0-4.6,0-7
						c0-4.1,0-8.4,0.1-12.6l1-19.6l2,0.1l-1,19.5c-0.1,4.2-0.1,8.4-0.1,12.5c0,2,0,4,0,6h17.1V64.6h-23.3l-17.3,54.2
						c-0.1,0.4-0.5,0.7-1,0.7l0,0c-0.4,0-0.8-0.3-1-0.7l-17.6-54.9l1.9-0.6l16.7,51.9l16.6-51.9c0.1-0.4,0.5-0.7,1-0.7h25
						c0.6,0,1,0.4,1,1v78.9C386.5,143,386,143.5,385.5,143.5z"/>
				</g>
				<g>
					<path class="st3" d="M349.2,143.5h-12.6c-0.4,0-0.8-0.3-0.9-0.7l-16.9-49.5c0.1,2.6,0.3,5.1,0.4,7.6
						c0.7,13.6,1.4,27.7,1.1,41.6c0,0.5-0.5,1-1,1h-2.2v-2h1.2c0.2-13.5-0.5-27.2-1.1-40.5c-0.2-4.8-0.5-9.8-0.7-14.7
						c0-0.5,0.3-0.9,0.8-1c0.5-0.1,1,0.2,1.1,0.7l18.9,55.5h11.1l8.9-26.2l1.9,0.6l-9.1,26.8C350,143.2,349.6,143.5,349.2,143.5z"/>
				</g>
				<g>
					<path class="st3" d="M301.3,118h-2V63.6c0-0.6,0.4-1,1-1h25v2h-24V118z"/>
				</g>
			</g>
		</g>
		<path class="st0" d="M446.5,109h-29.9v18.9h35.3v14.6h-54.4V63.6H452v14.7h-35.4v16.6h29.9V109z"/>
	</g>
	<g>
		<path class="st3" d="M257.3,126c-4,0-7.3-3.3-7.3-7.3c0-0.6,0.4-1,1-1h12.7c0.6,0,1,0.4,1,1C264.6,122.7,261.4,126,257.3,126z
			 M252.1,119.7c0.5,2.5,2.6,4.3,5.2,4.3c2.6,0,4.8-1.9,5.2-4.3H252.1z"/>
	</g>
	<g>
		<circle class="st3" cx="253.2" cy="113" r="1.5"/>
		<circle class="st3" cx="261.5" cy="113" r="1.5"/>
	</g>
	<g>
		<g>
			<path class="st3" d="M425.7,143.5h-28.1c-0.6,0-1-0.4-1-1V21.2c0,0,0-0.1,0-0.1c0-0.5,0-0.9,0-1.4c0.7-10.5,9.2-19,19.7-19.7
				c10.3-0.7,19.6,6,22.1,16c1.3,5.4,2.9,9.9,4.7,13.9l1.3,2.9c0.1,0.3,0.1,0.7-0.1,1c-0.2,0.3-0.5,0.5-0.8,0.5h-4.5V50
				c0,0.6-0.4,1-1,1h-19.2v12.6h-2V50c0-0.6,0.4-1,1-1h19.2V33.3c0-0.6,0.4-1,1-1h3.9l-0.7-1.5c-1.9-4.1-3.4-8.8-4.8-14.3
				c-2.3-9-10.7-15.1-20-14.5c-9.5,0.7-17.2,8.3-17.8,17.8c0,0.5,0,0.9,0,1.4c0,0,0,0.1,0,0.1v120.1h27.1V143.5z"/>
		</g>
		<g>
			<polygon class="st0" points="418.2,21.2 412,21.2 414.9,11.6 422.9,11.6 			"/>
			<polygon class="st0" points="413,28.9 415.8,17.3 421.9,17.3 			"/>
		</g>
		<g>
			<path class="st1" d="M417.5,37.3c-0.4,0-0.7,0-1.1,0l0.1-2c0.6,0,1.3,0,1.9,0l0.1,2C418.2,37.3,417.8,37.3,417.5,37.3z M420.7,37
				l-0.4-2c0.6-0.1,1.2-0.3,1.8-0.5l0.6,1.9C422.1,36.7,421.4,36.9,420.7,37z M414.2,37c-0.7-0.1-1.4-0.3-2.1-0.5l0.6-1.9
				c0.6,0.2,1.2,0.4,1.8,0.5L414.2,37z M424.7,35.7l-0.8-1.8c0.6-0.3,1.1-0.6,1.7-0.9l1.1,1.7C426,35.1,425.4,35.4,424.7,35.7z
				 M410.1,35.7c-0.6-0.3-1.3-0.7-1.9-1l1.1-1.7c0.5,0.3,1.1,0.7,1.7,0.9L410.1,35.7z M428.4,33.4l-1.3-1.5c0.5-0.4,1-0.8,1.4-1.3
				l1.5,1.4C429.5,32.5,428.9,32.9,428.4,33.4z M406.5,33.4c-0.6-0.5-1.1-1-1.6-1.5l1.5-1.4c0.4,0.5,0.9,0.9,1.4,1.3L406.5,33.4z
				 M431.3,30.3l-1.6-1.2c0.4-0.5,0.7-1.1,1-1.6l1.8,1C432.1,29.1,431.8,29.7,431.3,30.3z M403.6,30.3c-0.4-0.6-0.8-1.2-1.2-1.8
				l1.8-1c0.3,0.6,0.6,1.1,1,1.6L403.6,30.3z M433.4,26.5l-1.9-0.7c0.2-0.6,0.4-1.2,0.6-1.8l1.9,0.5
				C433.9,25.2,433.7,25.8,433.4,26.5z M401.5,26.5c-0.3-0.7-0.5-1.4-0.7-2.1l1.9-0.5c0.2,0.6,0.4,1.2,0.6,1.8L401.5,26.5z
				 M434.5,22.3l-2-0.3c0.1-0.6,0.1-1.3,0.1-1.9l2,0C434.6,20.9,434.6,21.6,434.5,22.3z M400.4,22.3c-0.1-0.7-0.1-1.4-0.1-2.1l2-0.1
				l0,0.1c0,0.6,0,1.2,0.1,1.9L400.4,22.3z M432.5,18.3c-0.1-0.6-0.2-1.3-0.3-1.9l1.9-0.5c0.2,0.7,0.3,1.4,0.4,2.1L432.5,18.3z
				 M402.4,18.2l-2-0.3c0.1-0.7,0.2-1.4,0.4-2.1l1.9,0.5C402.6,16.9,402.5,17.6,402.4,18.2z M431.6,14.6c-0.2-0.6-0.5-1.2-0.8-1.7
				l1.8-1c0.3,0.6,0.7,1.3,0.9,2L431.6,14.6z M403.4,14.5l-1.9-0.7c0.3-0.7,0.6-1.3,0.9-1.9l1.7,1C403.9,13.4,403.6,13.9,403.4,14.5
				z M429.7,11.3c-0.4-0.5-0.8-1-1.2-1.5l1.5-1.4c0.5,0.5,1,1.1,1.4,1.7L429.7,11.3z M405.2,11.2l-1.6-1.2c0.4-0.6,0.9-1.1,1.4-1.7
				l1.5,1.4C406,10.2,405.6,10.7,405.2,11.2z M427.2,8.5c-0.5-0.4-1-0.8-1.5-1.1l1.1-1.7c0.6,0.4,1.2,0.8,1.7,1.3L427.2,8.5z
				 M407.8,8.4l-1.3-1.5c0.6-0.5,1.1-0.9,1.7-1.3l1.1,1.7C408.8,7.7,408.3,8,407.8,8.4z M424,6.4c-0.6-0.3-1.2-0.5-1.8-0.7l0.6-1.9
				c0.7,0.2,1.4,0.5,2,0.8L424,6.4z M411,6.4l-0.8-1.8c0.6-0.3,1.3-0.6,2-0.8l0.6,1.9C412.2,5.9,411.6,6.1,411,6.4z M420.3,5.3
				c-0.6-0.1-1.3-0.2-1.9-0.2l0.1-2c0.7,0,1.4,0.1,2.1,0.3L420.3,5.3z M414.7,5.2l-0.4-2c0.7-0.1,1.4-0.2,2.1-0.3l0.1,2
				C415.9,5.1,415.3,5.1,414.7,5.2z"/>
		</g>
	</g>
	<g>
		<rect x="429.9" y="141.5" class="st3" width="6.7" height="2"/>
	</g>
	<g>
		<rect x="439.7" y="141.5" class="st3" width="2.6" height="2"/>
	</g>
	<g>
		<g>
			<path class="st3" d="M294.3,79.2h-52c-0.6,0-1-0.4-1-1V16.4c0-0.6,0.4-1,1-1h52c0.6,0,1,0.4,1,1v61.8
				C295.3,78.8,294.8,79.2,294.3,79.2z M243.3,77.2h50V17.4h-50V77.2z"/>
		</g>
		<rect x="249.3" y="23.1" class="st1" width="10.5" height="11.8"/>
		<g>
			<rect x="268.3" y="24.8" class="st3" width="20.1" height="2"/>
		</g>
		<g>
			<rect x="268.3" y="29.7" class="st3" width="20.1" height="2"/>
		</g>
		<g>
			<g>
				<rect x="249.3" y="41" class="st3" width="20" height="2"/>
			</g>
			<g>
				<rect x="273.8" y="41" class="st3" width="4" height="2"/>
			</g>
			<g>
				<rect x="281.2" y="41" class="st3" width="7.2" height="2"/>
			</g>
			<g>
				<rect x="249.3" y="46.3" class="st3" width="7.2" height="2"/>
			</g>
			<g>
				<rect x="260.9" y="46.3" class="st3" width="20.3" height="2"/>
			</g>
			<g>
				<rect x="284.8" y="46.3" class="st3" width="3.6" height="2"/>
			</g>
		</g>
		<g>
			<g>
				<rect x="249.3" y="52.4" class="st3" width="20" height="2"/>
			</g>
			<g>
				<rect x="273.8" y="52.4" class="st3" width="4" height="2"/>
			</g>
			<g>
				<rect x="281.2" y="52.4" class="st3" width="7.2" height="2"/>
			</g>
			<g>
				<rect x="249.3" y="57.7" class="st3" width="7.2" height="2"/>
			</g>
			<g>
				<rect x="260.9" y="57.7" class="st3" width="20.3" height="2"/>
			</g>
			<g>
				<rect x="284.8" y="57.7" class="st3" width="3.6" height="2"/>
			</g>
		</g>
	</g>
	<g>
		<path class="st3" d="M49.8,63.3l-1.6-1.1c11.4-16.4,30.2-28.2,51.4-32.4c19.4-3.8,40.4-1.4,60.8,6.8c4.6,1.9,9.1,4,13.5,6.1
			c6.2,3,12.7,6,19.3,8.3c9.2,3.1,22.5,5.7,34.3,0.4l0.8,1.8c-12.4,5.6-26.3,2.9-35.8-0.3c-6.7-2.3-13.2-5.4-19.5-8.4
			c-4.4-2.1-8.9-4.2-13.4-6.1c-20-8.1-40.6-10.5-59.7-6.7C79.2,35.8,61,47.3,49.8,63.3z"/>
	</g>
	<g>
		<path class="st3" d="M159.6,51.3c-0.4-0.2-0.9-0.4-1.3-0.5l0.7-1.9c0.5,0.2,0.9,0.4,1.4,0.5L159.6,51.3z M156.4,50.1
			c-0.6-0.2-1.2-0.5-1.9-0.7l0.7-1.9c0.6,0.2,1.3,0.5,1.9,0.7L156.4,50.1z M152.7,48.8c-0.6-0.2-1.3-0.4-1.9-0.6l0.6-1.9
			c0.6,0.2,1.3,0.4,1.9,0.6L152.7,48.8z M148.9,47.6c-0.6-0.2-1.3-0.4-1.9-0.6l0.5-1.9c0.6,0.2,1.3,0.4,1.9,0.6L148.9,47.6z
			 M145.1,46.5c-0.6-0.2-1.3-0.3-1.9-0.5l0.5-1.9c0.7,0.2,1.3,0.3,2,0.5L145.1,46.5z M141.2,45.6c-0.6-0.1-1.3-0.3-1.9-0.4l0.4-2
			c0.7,0.1,1.3,0.3,2,0.4L141.2,45.6z M137.3,44.7c-0.6-0.1-1.3-0.2-2-0.4l0.3-2c0.7,0.1,1.3,0.2,2,0.4L137.3,44.7z M99.9,44.6
			l-0.4-2c0.7-0.1,1.3-0.3,2-0.4l0.3,2C101.2,44.4,100.6,44.5,99.9,44.6z M133.4,44.1c-0.7-0.1-1.3-0.2-2-0.3l0.3-2
			c0.7,0.1,1.3,0.2,2,0.3L133.4,44.1z M103.8,43.9l-0.3-2c0.7-0.1,1.3-0.2,2-0.3l0.3,2C105.1,43.7,104.5,43.8,103.8,43.9z
			 M129.5,43.6c-0.7-0.1-1.3-0.1-2-0.2l0.2-2c0.7,0.1,1.3,0.1,2,0.2L129.5,43.6z M107.8,43.4l-0.2-2c0.7-0.1,1.3-0.1,2-0.2l0.2,2
			C109.1,43.3,108.4,43.4,107.8,43.4z M125.5,43.2c-0.7-0.1-1.3-0.1-2-0.1l0.1-2c0.7,0,1.3,0.1,2,0.1L125.5,43.2z M111.7,43.1
			l-0.1-2c0.7,0,1.3-0.1,2-0.1l0.1,2C113,43,112.4,43,111.7,43.1z M121.6,43c-0.7,0-1.3,0-2-0.1l0-2c0.7,0,1.3,0,2,0.1L121.6,43z
			 M115.7,42.9l0-2c0.7,0,1.3,0,2,0l0,2C117,42.9,116.3,42.9,115.7,42.9z"/>
	</g>
	<g>
		<path class="st3" d="M157,143.5h-2v-2h2V143.5z M153,143.5h-2v-2h2V143.5z M149,143.5h-2v-2h2V143.5z M145,143.5h-2v-2h2V143.5z
			 M141,143.5h-2v-2h2V143.5z M137,143.5h-2v-2h2V143.5z M133,143.5h-2v-2h2V143.5z M129,143.5h-2v-2h2V143.5z M125,143.5h-2v-2h2
			V143.5z M121,143.5h-2v-2h2V143.5z M117,143.5h-2v-2h2V143.5z M113,143.5h-2v-2h2V143.5z M109,143.5h-2v-2h2V143.5z M105,143.5h-2
			v-2h2V143.5z M101,143.5h-2v-2h2V143.5z M97,143.5h-2v-2h2V143.5z M95.9,140.6h-2v-2h2V140.6z M95.9,136.6h-2v-2h2V136.6z
			 M95.9,132.6h-2v-2h2V132.6z M95.9,128.6h-2v-2h2V128.6z M95.9,124.6h-2v-2h2V124.6z M95.9,120.6h-2v-2h2V120.6z M95.9,116.6h-2
			v-2h2V116.6z M95.9,112.6h-2v-2h2V112.6z M95.9,108.6h-2v-2h2V108.6z M95.9,104.6h-2v-2h2V104.6z M95.9,100.6h-2v-2h2V100.6z
			 M95.9,96.6h-2v-2h2V96.6z M95.9,92.6h-2v-2h2V92.6z M95.9,88.6h-2v-2h2V88.6z M95.9,84.6h-2v-2h2V84.6z"/>
	</g>
	<g>
		<rect x="226.2" y="141.5" class="st3" width="49.6" height="2"/>
	</g>
	<g>
		<rect x="281.2" y="141.5" class="st3" width="7.2" height="2"/>
	</g>
	<g>
		<rect x="294.3" y="141.5" class="st3" width="14.4" height="2"/>
	</g>
	<g>
		<path class="st3" d="M438.2,95.9h-2v-2h2V95.9z M434.2,95.9h-2v-2h2V95.9z M430.2,95.9h-2v-2h2V95.9z M426.2,95.9h-2v-2h2V95.9z
			 M422.2,95.9h-2v-2h2V95.9z M418.2,95.9h-1.7c-0.6,0-1-0.4-1-1v-0.3h1v-0.7h1.7V95.9z M417.6,92.6h-2v-2h2V92.6z M417.6,88.6h-2
			v-2h2V88.6z M417.6,84.6h-2v-2h2V84.6z"/>
	</g>
	<g>
		<rect x="306.6" y="48.3" class="st3" width="19.6" height="15.3"/>
		<polygon class="st1" points="316.4,39.7 300,48.3 316.4,56.9 332.9,48.3 		"/>
	</g>
	<g>
		<rect x="331.8" y="48.3" class="st1" width="1" height="15.5"/>
	</g>
	<g>
		<path class="st1" d="M332.3,67.5l-2.2-2.2l2.2-2.2l2.2,2.2L332.3,67.5z M331.5,65.3l0.8,0.8l0.8-0.8l-0.8-0.8L331.5,65.3z"/>
	</g>
	<g>
		<rect y="141.5" class="st3" width="22.5" height="2"/>
	</g>
	<g>
		<rect x="7.4" y="134.5" class="st3" width="15.1" height="2"/>
	</g>
	<g>
		<rect x="15" y="127.6" class="st3" width="7.5" height="2"/>
	</g>
	<g>
		<path class="st3" d="M451.9,128.8h-35.3c-0.6,0-1-0.4-1-1V109c0-0.6,0.4-1,1-1h35.3c0.6,0,1,0.4,1,1v18.9
			C452.9,128.4,452.5,128.8,451.9,128.8z M417.6,126.8h33.3V110h-33.3V126.8z"/>
	</g>
	<g>
		<path class="st3" d="M434.3,119.4c-0.2,0-0.3,0-0.5-0.1l-17.7-9.4c-0.4-0.2-0.6-0.7-0.5-1.1c0.1-0.4,0.5-0.8,1-0.8h35.3
			c0.5,0,0.9,0.3,1,0.8c0.1,0.4-0.1,0.9-0.5,1.1l-17.7,9.4C434.6,119.4,434.4,119.4,434.3,119.4z M420.6,110l13.7,7.3l13.7-7.3
			H420.6z"/>
	</g>
	<g>
		<rect x="411.5" y="122" class="st3" width="5.1" height="2"/>
	</g>
	<g>
		<rect x="407.9" y="125.2" class="st3" width="8.7" height="2"/>
	</g>
	<polygon class="st1" points="52.1,82.7 54,86.7 58.4,87.3 55.3,90.4 56,94.7 52.1,92.7 48.2,94.7 48.9,90.4 45.8,87.3 50.1,86.7 	
		"/>
	<g>
		<path class="st3" d="M138.8,95.9h-2v-2h2V95.9z M134.8,95.9h-2v-2h2V95.9z M130.8,95.9h-2v-2h2V95.9z M126.8,95.9h-2v-2h2V95.9z
			 M122.8,95.9h-2v-2h2V95.9z M118.8,95.9h-2v-2h2V95.9z M114.8,95.9h-0.8c-0.6,0-1-0.4-1-1v-1.2h2v1.2h-0.2V95.9z M114.9,91.7h-2
			v-2h2V91.7z M114.9,87.7h-2v-2h2V87.7z M114.9,83.7h-2v-2h2V83.7z"/>
	</g>
	<g>
		<g>
			<rect x="105.8" y="126.8" class="st3" width="60.5" height="2"/>
		</g>
		<g>
			<g>
				<path class="st3" d="M105.9,130.9c-1.7,0-3-1.3-3-3c0-1.7,1.3-3,3-3c1.7,0,3,1.3,3,3C108.9,129.5,107.6,130.9,105.9,130.9z"/>
			</g>
		</g>
		<g>
			<g>
				<polygon class="st3" points="165.1,131.8 172,127.8 165.1,123.9 				"/>
			</g>
		</g>
	</g>
</g>
</svg>
