<?xml version="1.0" encoding="utf-8"?>
<!-- Generator: Adobe Illustrator 25.2.1, SVG Export Plug-In . SVG Version: 6.00 Build 0)  -->
<svg version="1.1" id="Layer_1" xmlns="http://www.w3.org/2000/svg" xmlns:xlink="http://www.w3.org/1999/xlink" x="0px" y="0px"
	 viewBox="0 0 100 100" style="enable-background:new 0 0 100 100;" xml:space="preserve">
<style type="text/css">
	.st0{fill:#F8CF26;}
	.st1{fill:none;stroke:#000000;stroke-width:2.5;stroke-miterlimit:10;}
	.st2{fill:#443027;stroke:#000000;stroke-width:2.5;stroke-miterlimit:10;}
</style>
<path class="st0" d="M48,61.5H37.7v27.9h-19V10.5h31.1c9.4,0,16.7,2.1,22,6.2c5.3,4.2,7.9,10,7.9,17.6c0,5.5-1.1,10-3.3,13.6
	c-2.2,3.6-5.7,6.5-10.4,8.8l16.5,31.9v0.8H61.9L48,61.5z M37.7,46.9h12c3.6,0,6.3-0.9,8.2-2.9c1.8-1.9,2.7-4.6,2.7-8
	c0-3.4-0.9-6.1-2.8-8c-1.8-1.9-4.6-2.9-8.1-2.9h-12V46.9z"/>
<g>
	<g>
		<path class="st1" d="M48,61.5H37.7v27.9h-19V10.5h31.1c9.4,0,16.7,2.1,22,6.2c5.3,4.2,7.9,10,7.9,17.6c0,5.5-1.1,10-3.3,13.6
			c-2.2,3.6-5.7,6.5-10.4,8.8l16.5,31.9v0.8H61.9L48,61.5z M37.7,46.9h12c3.6,0,6.3-0.9,8.2-2.9c1.8-1.9,2.7-4.6,2.7-8
			c0-3.4-0.9-6.1-2.8-8c-1.8-1.9-4.6-2.9-8.1-2.9h-12V46.9z"/>
	</g>
	<g>
		<g>
			<path class="st2" d="M49.7,47.9c-0.1,0-0.2,0-0.2,0H37.7v-2h11.7c2.6,0,4.5-0.4,6.1-1.3c1.7-0.9,3-2.7,3.6-4.7
				c0.5-1.6,0.6-3.4,0.4-5.5c-0.2-1.8-0.7-3.1-1-3.7c-0.4-0.8-0.7-1.2-0.7-1.2l1.5-1.3c0,0.1,0.5,0.6,1,1.6c0.4,0.7,1,2.2,1.2,4.4
				c0.2,2.3,0.1,4.4-0.5,6.3c-0.7,2.5-2.4,4.7-4.5,5.9C54.7,47.4,52.5,47.9,49.7,47.9z"/>
		</g>
		<g>
			<path class="st2" d="M38.7,30.8h-2v-5.6c0-0.6,0.4-1,1-1h11.7c1.5,0,2.9,0.1,4.1,0.4l-0.5,1.9c-1.1-0.3-2.3-0.4-3.6-0.4H38.7
				V30.8z"/>
		</g>
		<g>
			<rect x="36.7" y="36.3" class="st2" width="2" height="10.6"/>
		</g>
	</g>
	<g>
		<g>
			<path class="st2" d="M37.7,90.5h-19c-0.6,0-1-0.4-1-1V10.5c0-0.6,0.4-1,1-1h13.7v2H19.7v76.9h17V61.5c0-0.6,0.4-1,1-1H48v2h-9.3
				v26.9C38.7,90,38.3,90.5,37.7,90.5z"/>
		</g>
		<g>
			<path class="st2" d="M75.5,77.7L65,57.3c-0.1-0.2-0.2-0.5-0.1-0.7c0-0.2,0.2-0.6,0.6-0.8c0,0,0,0,0,0l0.2-0.1
				c1.1-0.5,2.2-1.1,3.1-1.7c2.2-1.4,4.1-3.1,5.5-4.9c1.5-1.9,2.6-4.2,3.3-6.8c0.6-2.3,0.9-4.9,1-7.7c0-2.7-0.3-5.2-1-7.4
				c-0.6-2.2-1.7-4.3-3.1-6.1c-1.2-1.6-2.6-2.9-4.5-4.3c-2.5-1.7-5.2-3-8.5-3.9c-1-0.3-1.8-0.4-2.4-0.6l-1.1-0.2l0.4-2l1.2,0.2
				c0.6,0.1,1.5,0.3,2.5,0.6c3.5,0.9,6.4,2.3,9.1,4.2c2,1.4,3.6,3,4.9,4.7c1.5,2,2.7,4.3,3.4,6.8c0.7,2.4,1.1,5,1,7.9
				c0,3-0.4,5.7-1,8.2c-0.8,2.8-2,5.4-3.7,7.5c-1.5,2-3.5,3.8-6,5.4c-0.9,0.6-1.8,1.1-2.8,1.6l10.1,19.6L75.5,77.7z"/>
		</g>
		<g>
			<path class="st2" d="M73.6,90.5H61.9c-0.4,0-0.7-0.2-0.9-0.6L47.1,62l1.8-0.9l13.7,27.4h11.1V90.5z"/>
		</g>
	</g>
</g>
</svg>
